<svg width="37" height="41" viewBox="0 0 37 41" fill="none" xmlns="http://www.w3.org/2000/svg">
<path d="M35.584 29.7495V35.3895C35.5861 35.9131 35.4885 36.4313 35.2979 36.911C35.1074 37.3908 34.8277 37.8215 34.4772 38.1753C34.1266 38.5293 33.7127 38.7989 33.2621 38.9666C32.8112 39.1343 32.3337 39.1965 31.8599 39.1495C26.6031 38.5209 21.5535 36.5441 17.1169 33.3779C12.9893 30.4914 9.48984 26.6402 6.86697 22.0979C3.97985 17.1934 2.18313 11.6094 1.62239 5.79829C1.57969 5.27841 1.63585 4.75446 1.78724 4.25975C1.93865 3.76505 2.18198 3.31047 2.50178 2.92495C2.82157 2.53942 3.21081 2.23138 3.64469 2.02049C4.07859 1.80957 4.54763 1.7004 5.02197 1.69989H10.147C10.976 1.69092 11.7798 2.014 12.4084 2.60894C13.037 3.20387 13.4476 4.03006 13.5636 4.93349C13.7799 6.73842 14.1811 8.51062 14.7595 10.2163C14.9893 10.8892 15.0391 11.6205 14.9028 12.3236C14.7666 13.0266 14.45 13.672 13.9907 14.1831L11.8211 16.5707C14.253 21.2773 17.7943 25.1744 22.0711 27.8507L24.2407 25.4631C24.7052 24.9576 25.2917 24.6093 25.9304 24.4594C26.5693 24.3094 27.2339 24.3641 27.8453 24.6171C29.3952 25.2535 31.0057 25.6951 32.6457 25.9331C33.4756 26.0619 34.2334 26.522 34.7753 27.2256C35.317 27.9293 35.6049 28.8276 35.584 29.7495Z" stroke="#7A9CA5" stroke-width="2" stroke-linecap="round" stroke-linejoin="round"/>
</svg>
